# 3ds Max Wavefront OBJ Exporter v0.97b - (c)2007 guruware
# File Created: 02.11.2020 14:36:04

#
# object AimingArrow
#

v  -0.2007 4.5534 31.6079
v  -2.1910 3.9364 31.6084
v  -1.7370 2.6510 38.7518
v  -0.2005 3.0045 38.7168
v  1.7911 3.9362 31.6085
v  1.3367 2.6502 38.7537
v  -0.2006 5.5812 23.2629
v  -2.6444 4.9533 23.2633
v  2.2443 4.9532 23.2634
v  -0.2005 6.1216 14.9178
v  -3.0543 5.4880 14.9182
v  2.6540 5.4879 14.9182
v  -0.2007 6.1745 6.5731
v  -3.3740 5.5406 6.5735
v  2.9741 5.5405 6.5750
v  -0.2005 5.7298 -1.6915
v  -4.4886 5.0870 -1.6610
v  4.0884 5.0872 -1.6616
v  8.1933 3.4026 -1.7726
v  -0.2002 3.6797 -19.8951
v  -8.5943 3.4025 -1.7727
v  -1.6132 2.3745 39.7002
v  -0.2001 2.3745 39.6884
v  1.2121 2.3745 39.6994
# 24 vertices

vn -0.0000 0.9862 0.1658
vn -0.1104 0.9805 0.1624
vn -0.0794 0.9492 0.3044
vn 0.0000 0.9484 0.3172
vn 0.1103 0.9805 0.1624
vn 0.0795 0.9492 0.3045
vn -0.0000 0.9950 0.0994
vn -0.1036 0.9899 0.0969
vn 0.1036 0.9899 0.0969
vn -0.0000 0.9992 0.0402
vn -0.0902 0.9952 0.0381
vn 0.0902 0.9952 0.0381
vn -0.0000 0.9999 -0.0162
vn -0.0762 0.9969 -0.0195
vn 0.0762 0.9969 -0.0195
vn -0.0000 0.9958 -0.0917
vn -0.0984 0.9889 -0.1116
vn 0.0984 0.9889 -0.1116
vn 0.1102 0.9840 -0.1398
vn -0.0000 0.9901 -0.1407
vn -0.1102 0.9840 -0.1398
vn -0.0411 0.9010 0.4319
vn 0.0000 0.9017 0.4324
vn 0.0411 0.9009 0.4322
# 24 vertex normals

vt 0.5000 0.1358 0.0000
vt 0.3814 0.1358 0.0000
vt 0.4085 0.0159 0.0000
vt 0.5000 0.0165 0.0000
vt 0.6186 0.1358 0.0000
vt 0.5916 0.0159 0.0000
vt 0.5000 0.2758 0.0000
vt 0.3544 0.2758 0.0000
vt 0.6456 0.2758 0.0000
vt 0.5000 0.4158 0.0000
vt 0.3300 0.4158 0.0000
vt 0.6700 0.4158 0.0000
vt 0.5000 0.5559 0.0000
vt 0.3110 0.5559 0.0000
vt 0.6891 0.5558 0.0000
vt 0.5000 0.6945 0.0000
vt 0.2446 0.6940 0.0000
vt 0.7555 0.6940 0.0000
vt 1.0000 0.6959 0.0000
vt 0.5000 1.0000 0.0000
vt 0.0000 0.6959 0.0000
vt 0.4158 0.0000 0.0000
vt 0.5000 0.0002 0.0000
vt 0.5841 0.0000 0.0000
# 24 texture coords

o AimingArrow
g AimingArrow
s 1
f 1/1/1 2/2/2 3/3/3 
f 3/3/3 4/4/4 1/1/1 
f 5/5/5 1/1/1 4/4/4 
f 4/4/4 6/6/6 5/5/5 
f 7/7/7 8/8/8 2/2/2 
f 2/2/2 1/1/1 7/7/7 
f 9/9/9 7/7/7 1/1/1 
f 1/1/1 5/5/5 9/9/9 
f 10/10/10 11/11/11 8/8/8 
f 8/8/8 7/7/7 10/10/10 
f 12/12/12 10/10/10 7/7/7 
f 7/7/7 9/9/9 12/12/12 
f 13/13/13 14/14/14 11/11/11 
f 11/11/11 10/10/10 13/13/13 
f 15/15/15 13/13/13 10/10/10 
f 10/10/10 12/12/12 15/15/15 
f 16/16/16 17/17/17 14/14/14 
f 14/14/14 13/13/13 16/16/16 
f 18/18/18 16/16/16 13/13/13 
f 13/13/13 15/15/15 18/18/18 
s 3
f 18/18/18 19/19/19 20/20/20 
f 20/20/20 16/16/16 18/18/18 
f 17/17/17 16/16/16 20/20/20 
f 20/20/20 21/21/21 17/17/17 
s 1
f 3/3/3 22/22/22 23/23/23 
f 23/23/23 4/4/4 3/3/3 
f 4/4/4 23/23/23 24/24/24 
f 24/24/24 6/6/6 4/4/4 
# 28 faces

